<svg width="97" height="93" viewBox="0 0 97 93" fill="none" xmlns="http://www.w3.org/2000/svg">
<path d="M56.3463 90.2584C56.8568 90.1619 57.2653 90.0825 57.7475 89.9747C58.2296 89.8669 58.4622 89.4472 58.6891 89.2316C59.508 88.5274 60.4614 87.9967 61.4914 87.6716C63.959 86.8151 66.4946 86.8207 67.164 87.6716C67.8334 88.5225 66.3698 89.9407 63.9022 90.8029C61.7013 91.5687 59.4209 91.6311 58.4906 91.0185C58.4396 90.979 58.3811 90.9506 58.3186 90.935C58.2561 90.9194 58.191 90.9169 58.1275 90.9277C57.2936 91.1149 56.4257 91.2794 55.5635 91.4269C54.9962 92.0225 53.4873 92.5614 51.6834 92.6352C50.5853 92.7149 49.482 92.584 48.433 92.2494C48.1329 92.1476 47.8194 92.0902 47.5027 92.0793C46.4589 92.0793 45.4549 91.9942 44.4905 91.8864C40.3439 91.393 36.259 90.4749 32.3001 89.1465C31.7551 89.022 31.1969 88.9649 30.638 88.9763C29.2341 89.0999 27.8211 88.8819 26.5197 88.341C24.4945 87.5695 22.9743 86.3556 22.5488 85.2891C22.3167 84.8255 21.9786 84.4232 21.5618 84.1149C20.0644 83.1754 18.6368 82.1289 17.2903 80.9836C17.199 80.9103 17.0929 80.8577 16.9793 80.8293C16.8657 80.8009 16.7473 80.7974 16.6323 80.8191C15.9257 80.8199 15.2456 80.5499 14.7319 80.0646C13.7676 79.1967 13.484 77.9374 14.1136 77.2283C14.7433 76.5193 16.0367 76.6611 17.001 77.546C17.3025 77.8144 17.5404 78.1467 17.6974 78.5186C17.8544 78.8905 17.9265 79.2927 17.9086 79.6959C17.8752 79.918 17.9257 80.1445 18.0504 80.3313C19.3007 81.4279 20.6489 82.4077 22.078 83.2583C22.7128 83.4385 23.3806 83.4696 24.0294 83.3491C25.1185 83.1846 26.4799 83.4285 28.1931 83.9788C29.3574 84.2062 30.5582 84.1655 31.7044 83.8596C32.6631 83.5306 33.9735 83.0484 35.5788 82.4074C35.6749 82.3598 35.7607 82.2936 35.8312 82.2128C35.9018 82.132 35.9557 82.0381 35.99 81.9364C36.0242 81.8347 36.0381 81.7273 36.0308 81.6203C36.0235 81.5133 35.9952 81.4087 35.9476 81.3126C35.9457 81.2957 35.9457 81.2785 35.9476 81.2616C35.6539 80.7712 35.5136 80.2042 35.5448 79.6335C35.6696 77.4439 38.4208 75.8839 41.6883 76.1505C44.031 76.3434 45.9994 77.4155 46.89 78.8167C47.1662 79.0913 47.5059 79.2935 47.879 79.4053C48.252 79.5172 48.6469 79.5351 49.0286 79.4577L55.7053 77.9374C56.0457 77.858 56.2726 77.4666 56.4371 77.2907C57.1014 76.5043 58.0102 75.963 59.0181 75.7534C60.1954 75.4188 61.4566 75.5551 62.5351 76.1335C63.0988 76.4369 63.7598 76.5042 64.3731 76.3207L69.4784 74.721C69.8358 74.6076 69.9209 74.1538 69.9606 73.8077C70.0725 73.1861 70.3149 72.5952 70.6718 72.0741C71.0287 71.5529 71.492 71.1133 72.0311 70.7842C73.852 69.5589 76.0303 69.5986 76.8926 70.8693C77.7548 72.14 76.972 74.1594 75.1511 75.3791C73.6251 76.4001 71.8553 76.5419 70.8115 75.8158C70.6213 75.6998 70.4081 75.6265 70.1867 75.6011C69.9654 75.5756 69.7411 75.5986 69.5295 75.6684L64.322 77.3021C63.6583 77.512 63.5165 77.7899 63.4314 78.1246C63.295 78.5795 63.0382 78.9891 62.6883 79.3102C62.3933 79.5881 62.6883 79.9455 62.9492 80.0646C63.9022 80.5014 65.0084 81.1538 66.4549 81.8175C67.2661 82.1919 68.6446 82.7818 70.5959 83.5987C70.7433 83.6601 70.9027 83.687 71.062 83.6771C71.2213 83.6673 71.3763 83.6211 71.5149 83.542C71.7556 83.3025 72.0612 83.1388 72.3939 83.0713C72.7266 83.0037 73.0719 83.0352 73.3869 83.1619C73.5138 83.2345 73.6576 83.2728 73.8038 83.2728C73.9501 83.2728 74.0938 83.2345 74.2208 83.1619L79.9841 80.0136C80.186 79.8883 80.3601 79.723 80.4957 79.5279C80.6313 79.3328 80.7256 79.112 80.7726 78.8791C80.9494 78.1995 81.2881 77.5728 81.7597 77.0525C82.8148 75.8442 84.2329 75.3507 84.9193 75.918C85.6057 76.4852 85.3051 77.9771 84.25 79.1911C83.2686 80.3256 81.9809 80.8248 81.2491 80.422C81.1516 80.3684 81.0404 80.3446 80.9295 80.3537C80.8185 80.3627 80.7127 80.4043 80.6251 80.4731L74.1527 83.9958C74.071 84.0346 73.9988 84.0908 73.941 84.1603C73.8833 84.2299 73.8413 84.3112 73.818 84.3985C73.7117 84.7818 73.4947 85.1252 73.194 85.3856C72.502 86.0096 71.5603 86.0946 71.0951 85.5841C70.9691 85.4398 70.8866 85.2628 70.8569 85.0736C70.855 84.9825 70.8236 84.8945 70.7673 84.8229C70.711 84.7512 70.6329 84.6999 70.5449 84.6765C68.1964 83.6857 66.5457 82.9728 65.5927 82.5379C63.959 81.7891 62.6883 81.063 61.6219 80.5695C61.2518 80.3939 60.8309 80.3577 60.4363 80.4674C58.7345 80.8758 57.0838 80.4674 56.3747 79.6108C56.2885 79.5312 56.1825 79.476 56.0678 79.4511C55.9531 79.4261 55.8338 79.4323 55.7223 79.469L55.45 79.5314L54.1964 79.815L54.0149 79.8548C51.2183 80.4901 49.2782 80.9269 47.8544 81.2275C47.6825 81.2491 47.5185 81.3119 47.3762 81.4107C47.234 81.5095 47.1178 81.6413 47.0375 81.7948C46.7788 82.2392 46.4312 82.6254 46.0165 82.9293C45.8548 83.0398 45.7432 83.2096 45.706 83.4019C45.6688 83.5941 45.7091 83.7933 45.8179 83.9561L49.7888 89.1068C49.9398 89.2946 50.1364 89.4406 50.3598 89.531C50.5832 89.6213 50.826 89.653 51.0651 89.623L51.5416 89.589C52.6278 89.5086 53.7193 89.6356 54.758 89.9634C55.2499 90.207 55.7998 90.3091 56.3463 90.2584ZM43.1688 84.0185C42.5211 84.1158 41.8643 84.1367 41.2118 84.0809C40.4532 84.0297 39.7042 83.883 38.9824 83.6441C38.4278 83.4745 37.8352 83.4745 37.2806 83.6441C36.0667 84.1054 34.259 84.7824 31.8576 85.6749C31.8101 85.6973 31.7675 85.729 31.7323 85.7681C31.6971 85.8071 31.67 85.8528 31.6526 85.9024C31.6352 85.952 31.6278 86.0045 31.6308 86.057C31.6339 86.1095 31.6473 86.1609 31.6704 86.2081C31.682 86.2377 31.6993 86.2647 31.7215 86.2875C31.9927 86.5971 32.1871 86.9664 32.2887 87.3653C32.3208 87.5846 32.4123 87.7909 32.5533 87.9619C32.6943 88.1329 32.8794 88.2621 33.0886 88.3353C36.8314 89.5609 40.687 90.4103 44.5983 90.871C45.54 90.981 46.4866 91.0434 47.4346 91.0582C47.7206 90.5979 48.1707 90.2634 48.6939 90.1222C46.6802 87.5014 45.2904 85.6635 44.4905 84.6651C44.3367 84.4604 44.137 84.2948 43.9074 84.1814C43.6778 84.0681 43.4248 84.0104 43.1688 84.0128V84.0185ZM27.8527 84.9374C25.7595 84.1433 23.8819 84.0468 23.5869 84.7275C23.2919 85.4083 24.8065 86.6052 26.8997 87.405C28.9929 88.2049 30.8706 88.2956 31.1599 87.6149C31.296 87.2632 30.967 86.7754 30.326 86.2762L30.2125 86.3159L30.1388 86.1344C29.4369 85.6412 28.6742 85.2408 27.8697 84.9431L27.8527 84.9374ZM51.6437 91.7786C53.0675 91.7049 54.2077 91.3475 54.1907 90.9844C54.1737 90.6214 52.9995 90.3832 51.5813 90.4569C50.1632 90.5306 49.0173 90.888 49.0343 91.2511C49.0513 91.6141 50.2199 91.8524 51.6437 91.7786ZM15.4183 79.2988C15.9005 79.7356 16.4961 79.8661 16.7401 79.5938C16.984 79.3215 16.7911 78.7543 16.3033 78.3175C15.8154 77.8807 15.2255 77.7502 14.9872 78.0282C14.749 78.3061 14.9135 78.8847 15.3956 79.3159L15.4183 79.2988ZM71.6851 74.3126C72.1729 75.033 73.4152 75.0557 74.4533 74.358C75.4914 73.6603 75.9396 72.5144 75.446 71.7883C74.9525 71.0622 73.7442 71.0508 72.6835 71.7486C71.6227 72.4463 71.1972 73.5922 71.6851 74.3126ZM57.7872 78.533C57.9914 79.1911 59.0465 79.5201 60.1413 79.2648C61.2361 79.0095 61.9565 78.2778 61.7523 77.6197C61.5481 76.9617 60.493 76.6327 59.3982 76.8823C58.3034 77.1319 57.5773 77.875 57.7872 78.533ZM37.2693 79.7583C37.2693 81.1651 39.1412 82.5209 41.5011 82.7875C43.8609 83.0541 45.7952 82.1351 45.8236 80.734C45.852 79.3329 43.9516 77.9771 41.5918 77.7048C39.232 77.4325 37.292 78.3572 37.2693 79.764V79.7583ZM81.9242 79.3045C82.1738 79.5201 82.8545 79.1343 83.4501 78.4536C84.0457 77.7729 84.3294 77.0525 84.0854 76.8369C83.8415 76.6214 83.1551 77.0071 82.5595 77.6878C81.9639 78.3685 81.6803 79.0946 81.9242 79.3102V79.3045ZM72.7005 84.8013C73.0352 84.5063 73.1486 84.0922 72.9557 83.8823C72.7629 83.6724 72.3431 83.7405 72.0084 84.0412C71.6737 84.3418 71.5603 84.7502 71.7532 84.9601C71.946 85.17 72.3658 85.1133 72.6778 84.8183L72.7005 84.8013ZM59.6988 90.2073C60.0959 90.5079 61.758 90.3491 63.4144 89.8499C65.0708 89.3507 66.1032 88.7154 65.6835 88.4034C65.2637 88.0914 63.6243 88.2673 61.9679 88.7664C60.3115 89.2656 59.2791 89.901 59.6988 90.2073ZM51.8649 13.5758L52.6024 15.0847C52.8413 15.5534 53.2075 15.9452 53.6591 16.2152C54.1106 16.4851 54.6291 16.6222 55.1551 16.6107C56.2738 16.6383 57.3743 16.9011 58.3848 17.382C59.3954 17.8628 60.2934 18.5509 61.0206 19.4016C61.9442 20.549 63.2634 21.3097 64.7191 21.5345C67.2324 21.7676 69.7279 22.1637 72.1899 22.7201C74.147 23.2476 74.9582 22.7825 75.2759 22.0848C75.7807 20.9786 76.5295 20.2809 77.3634 20.2809C78.7418 20.2809 79.882 22.2039 80.0919 24.7112C80.1814 25.3196 80.5076 25.8681 80.9995 26.2371L85.9007 28.4438C86.19 28.5742 86.3375 28.4891 86.3772 28.3133C86.5474 27.5191 86.8367 26.9973 87.1316 27.0086C87.5571 27.0086 87.8464 28.2112 87.7727 29.6407C87.6989 31.0702 87.2848 32.2161 86.8537 32.1934C86.536 32.1934 86.2864 31.5127 86.224 30.5823C86.2006 30.4595 86.1482 30.344 86.0713 30.2453C85.9943 30.1467 85.895 30.0678 85.7816 30.0151L80.8747 27.7914C80.6859 27.6884 80.4639 27.6646 80.2575 27.7252C80.0512 27.7859 79.8773 27.926 79.7742 28.1148C79.7742 28.1488 79.7459 28.1828 79.7345 28.2112C79.2524 29.7428 78.3731 30.7695 77.3634 30.7695C76.0644 30.7695 74.8447 29.0678 74.6802 26.7987C74.5951 25.6642 73.2678 25.3522 72.4566 25.165C69.7675 24.603 67.0474 24.2014 64.3107 23.9624C63.2896 23.8603 61.9849 23.9964 61.3326 25.0232C60.1129 26.9519 57.5603 28.2793 54.6105 28.2793C51.4679 28.2793 48.7734 26.7703 47.6615 24.6374C47.5389 24.3997 47.3451 24.2062 47.107 24.0841C46.869 23.9621 46.5988 23.9175 46.3341 23.9567C45.6534 24.0532 44.587 24.2347 43.8325 24.4049C43.642 24.4682 43.4764 24.59 43.3593 24.753C43.2422 24.916 43.1795 25.1118 43.1802 25.3125C42.9249 27.2922 40.9111 28.8352 38.4038 28.8352C37.1614 28.8422 35.9505 28.4439 34.9549 27.7007C34.1323 27.1957 33.1448 27.0328 32.2036 27.2468C30.5662 27.7305 28.9549 28.2985 27.3762 28.9486C27.0999 29.0827 26.8701 29.2965 26.7164 29.5624C26.5627 29.8283 26.4922 30.1342 26.514 30.4405C26.4888 31.2836 26.1835 32.0944 25.6463 32.7446C25.109 33.3949 24.3704 33.8476 23.5472 34.0313V47.8725C24.3772 48.0144 25.1302 48.4453 25.6731 49.089C26.2161 49.7326 26.5139 50.5475 26.5139 51.3895C26.5139 52.2316 26.2161 53.0465 25.6731 53.6901C25.1302 54.3337 24.3772 54.7646 23.5472 54.9066V67.029H21.1704V54.9633C20.3227 54.836 19.5489 54.4087 18.9896 53.7591C18.4303 53.1095 18.1226 52.2808 18.1226 51.4236C18.1226 50.5664 18.4303 49.7376 18.9896 49.0881C19.5489 48.4385 20.3227 48.0112 21.1704 47.8838V34.0256C20.3497 33.8663 19.6052 33.4389 19.0539 32.8105C18.5025 32.1821 18.1755 31.3884 18.1242 30.554C18.1245 29.7166 18.4335 28.9088 18.9921 28.2849C19.1148 28.0636 19.1791 27.8147 19.1791 27.5617C19.1791 27.3086 19.1148 27.0597 18.9921 26.8384C18.6404 26.101 18.4759 25.7493 18.2546 25.182C18.0334 24.6147 17.8122 24.0929 17.625 23.5823C17.2846 22.6463 16.9329 21.1658 16.326 20.9843C16.0355 20.9379 15.7609 20.8211 15.5261 20.6439C15.2595 20.4567 14.7887 20.5191 14.3916 21.0126C13.2573 22.4038 12.2475 23.892 11.3738 25.46C11.2619 25.6244 11.1912 25.8132 11.1675 26.0107C11.1438 26.2081 11.1679 26.4083 11.2376 26.5945C11.4588 27.6383 10.9597 28.631 10.1031 28.8068C9.24652 28.9827 8.4013 28.2793 8.1744 27.2298C7.94749 26.1804 8.45235 25.1934 9.30892 25.0175C9.45641 25.0175 9.25219 24.9381 9.74571 25.0175C10.2392 25.0969 10.4718 24.9778 10.6477 24.6715C11.6209 22.9703 12.761 21.3703 14.0512 19.8951C14.2059 19.7218 14.3234 19.5186 14.3966 19.2981C14.4698 19.0777 14.497 18.8445 14.4767 18.6131C14.5065 17.9845 14.7135 17.3771 15.0739 16.8612C15.4342 16.3452 15.9332 15.9418 16.5132 15.6974C18.1696 14.9316 20.0472 15.4535 20.7109 16.8659C21.176 17.8473 20.6428 18.7095 21.7547 19.169C22.5725 19.5157 23.4097 19.8149 24.262 20.0653C24.5116 19.4243 24.7498 18.8287 25.1355 17.8927C25.5213 16.9567 24.5286 16.2476 24.279 15.7598C23.394 14.0296 24.642 11.6358 27.0699 10.4048C27.5583 10.1381 28.0842 9.94685 28.6299 9.83756C29.3211 9.6662 29.9261 9.24873 30.3317 8.66333C31.6023 7.02394 32.6007 5.76462 33.168 4.95911C33.3665 4.70384 33.4006 4.47693 33.1226 4.36348C32.85 4.25407 32.5911 4.11319 32.3511 3.94371C32.0732 3.73382 31.5967 3.80756 30.689 4.22167C29.7814 4.63577 29.2142 5.08391 28.8227 5.25408C28.4146 5.4755 28.0943 5.82976 27.9151 6.25814C27.3527 7.25399 26.5781 8.11388 25.6461 8.77678C23.7628 10.0418 21.7093 10.2857 21.0513 9.34405C20.3932 8.40239 21.3973 6.58148 23.2806 5.31648C24.2965 4.55392 25.539 4.15441 26.809 4.18196C27.1436 4.21386 27.4806 4.15507 27.7847 4.01178C28.1307 3.83026 29.2425 3.26867 30.0537 2.87726C30.4168 2.71275 31.1882 2.42345 31.5569 2.30999C31.866 2.17422 32.1469 1.98182 32.3852 1.74273C33.2304 1.02231 34.8017 0.455044 36.6396 0.296211C39.4759 0.052288 41.8301 0.863473 41.9379 2.10578C42.0456 3.34808 39.8673 4.52232 37.048 4.76057C36.0837 4.83998 35.091 4.80595 34.5464 5.52637C34.0019 6.24679 33.0829 7.43237 31.7839 9.10012C31.3471 9.66739 31.5626 9.96803 31.7271 10.0475C32.256 10.3451 32.704 10.7677 33.0318 11.2784C33.168 11.5394 33.7636 11.4032 34.1664 11.2784C35.5675 10.7622 36.5829 10.4162 37.933 9.934C38.5078 9.72978 39.3927 9.42724 40.5878 9.02638C40.8932 8.93271 41.1769 8.77913 41.4224 8.5746C41.6678 8.37006 41.8701 8.11868 42.0173 7.83513C42.5165 6.33755 44.6777 5.2087 47.2701 5.2087C47.7826 5.18584 48.2957 5.23163 48.7961 5.34485C49.8433 5.54886 50.9177 5.57189 51.9727 5.41292C53.3909 5.01583 55.1891 4.59039 56.9703 4.19898L51.7628 2.06607C50.061 1.85051 48.7734 1.24354 48.8414 0.693295C48.9095 0.14305 50.3447 -0.140581 52.0408 0.0693061C52.9319 0.14367 53.7967 0.408705 54.5765 0.846456C56.4833 0.937268 58.3801 1.17815 60.2491 1.56688C60.9752 1.15278 62.728 1.24354 64.6283 1.85618C66.9655 2.61631 68.6502 3.87564 68.3893 4.69249C68.1284 5.50935 66.0238 5.52637 63.681 4.77191C62.9956 4.53852 62.2705 4.44403 61.5481 4.49395L60.2548 4.73787L64.6737 6.61551C65.6381 7.02394 67.2151 6.75166 68.2929 6.66089C69.8874 6.58523 71.4825 6.79854 73.0011 7.29056C77.4371 8.81082 80.2054 12.4356 79.1786 15.3911C78.1519 18.3465 73.7329 19.5094 69.2969 17.9948C64.8609 16.4802 61.9225 12.7476 63.1591 9.86593C63.647 8.7314 63.8512 7.1771 62.4387 6.57581L58.7515 4.99882C56.9136 5.37321 55.1267 5.78164 53.5667 6.17872C53.2452 6.2266 52.9551 6.39802 52.7581 6.65651C52.561 6.915 52.4726 7.24016 52.5116 7.56284C52.5211 7.64975 52.5402 7.73535 52.5683 7.81811C52.7726 8.43643 52.6761 8.24923 52.6761 8.47613C52.6782 8.82221 52.601 9.16417 52.4506 9.47584C52.3002 9.78752 52.0804 10.0607 51.8082 10.2744C51.5147 10.547 51.3097 10.9013 51.2197 11.2917C51.1297 11.682 51.1588 12.0904 51.3034 12.464C51.5813 13.0029 51.7118 13.2695 51.8649 13.5758ZM45.9257 11.6641C44.8475 11.5216 43.8261 11.097 42.9646 10.4332C42.6129 10.1382 41.7166 10.1722 40.9792 10.4332C39.8447 10.8114 38.9994 11.1007 38.4435 11.3011L35.7093 12.2881C34.5748 12.6966 33.48 13.1504 32.7595 14.3757C32.1504 15.3541 31.2773 16.1406 30.2409 16.6447C29.4783 17.0423 28.6424 17.2797 27.7847 17.3424C27.5046 17.3632 27.2364 17.4641 27.0121 17.633C26.7878 17.802 26.6169 18.032 26.5197 18.2954C26.185 19.101 25.89 19.8271 25.6461 20.4624L26.3438 20.6496C27.5521 20.9616 30.0537 21.4154 33.8373 21.994C34.1485 22.0569 34.4691 22.0577 34.7806 21.9964C35.0921 21.935 35.3884 21.8128 35.6526 21.6366C36.4846 21.1838 37.4168 20.9466 38.3641 20.9466C39.3114 20.9466 40.2436 21.1838 41.0756 21.6366C41.7551 21.9778 42.5117 22.1361 43.2709 22.0961C44.2466 22.0451 45.0067 21.977 45.54 21.8919C46.4533 21.7557 47.5424 20.4057 47.809 19.9292C48.1336 19.415 48.5332 18.9523 48.9946 18.5564C49.4371 18.182 50.2369 17.0645 49.7888 16.1512C49.3406 15.2379 49.335 15.2209 49.1761 14.8805C48.9549 14.4267 48.6089 13.8027 48.1324 13.0256C47.6052 12.2984 46.8121 11.809 45.9257 11.6641ZM33.6331 24.3254C33.6794 24.0309 33.7672 23.7444 33.8941 23.4746C29.9043 22.8695 27.2571 22.3968 25.9524 22.0564L25.1072 21.8238C25.1072 21.9146 25.0448 21.9997 25.0164 22.0848C24.6798 23.0604 24.2601 24.4597 23.7571 26.2825C23.6096 26.8498 23.7004 27.0029 23.95 27.0937C24.2382 27.1842 24.5101 27.3201 24.7555 27.4964C25.2093 27.7801 25.89 27.6893 26.6161 27.366C28.4579 26.5716 30.3535 25.9081 32.2887 25.3806C32.7425 25.2501 33.5083 25.0402 33.6331 24.3254ZM23.638 21.6139C23.638 21.5459 23.689 21.4835 23.7117 21.4097C22.7303 21.1034 21.8795 20.7971 21.1477 20.4964C20.8647 20.3592 20.5533 20.2907 20.2388 20.2966C19.9244 20.3026 19.6157 20.3827 19.3381 20.5305C19.1953 20.6362 19.0389 20.7221 18.873 20.7857C18.4645 20.9729 18.5156 22.1585 18.873 23.1569C19.0488 23.6391 19.253 24.1496 19.4799 24.6885C19.7068 25.2274 19.9111 25.528 20.1663 26.0726C20.4216 26.6172 20.6882 27.0767 21.0853 26.9689C21.3117 26.9053 21.5433 26.8616 21.7773 26.8384C22.095 26.7987 22.1688 26.5775 22.2652 26.2258C22.8173 24.2177 23.2749 22.6804 23.638 21.6139ZM22.356 54.2712C24.1485 54.2372 25.5837 52.9325 25.5553 51.3612C25.527 49.7899 24.0521 48.5249 22.2595 48.5702C20.467 48.6156 19.0431 49.9033 19.0431 51.4803C19.0431 53.0573 20.5634 54.2996 22.356 54.2712ZM22.356 33.3336C24.1485 33.2995 25.5837 32.0005 25.5553 30.4235C25.527 28.8465 24.0521 27.5872 22.2595 27.6326C20.467 27.678 19.0431 28.9656 19.0431 30.5426C19.0431 32.1196 20.5407 33.379 22.3389 33.3336H22.356ZM29.7304 15.686C31.5229 14.7784 32.4702 13.0653 31.8576 11.8627C31.245 10.6601 29.3106 10.4332 27.5521 11.3295C25.7936 12.2257 24.8065 13.9445 25.4248 15.1471C26.0432 16.3497 27.9605 16.588 29.7531 15.686H29.7304ZM18.4759 19.9008C18.9652 19.7047 19.3581 19.3245 19.5702 18.8419C19.7823 18.3594 19.7967 17.8129 19.6104 17.3198C19.3442 16.8641 18.9112 16.53 18.403 16.3881C17.8947 16.2463 17.3512 16.3078 16.8875 16.5596C16.3914 16.7469 15.9895 17.1228 15.7696 17.6053C15.5496 18.0877 15.5294 18.6377 15.7133 19.135C15.9788 19.6021 16.4186 19.945 16.9364 20.0886C17.4542 20.2321 18.0078 20.1646 18.4759 19.9008ZM10.4832 26.7079C10.347 26.0669 9.91589 25.6188 9.4791 25.7096C9.04231 25.8003 8.82675 26.3903 8.96856 27.0313C9.11038 27.6723 9.53582 28.1148 9.97262 28.0297C10.4094 27.9446 10.5966 27.3773 10.4605 26.7363L10.4832 26.7079ZM54.6162 26.5151C57.8552 26.5151 60.476 24.6715 60.476 22.3968C60.476 20.122 57.8552 18.2728 54.6162 18.2728C51.3771 18.2728 48.7563 20.1164 48.7563 22.3911C48.7563 24.6658 51.3771 26.5434 54.5935 26.5434L54.6162 26.5151ZM77.3691 29.567C78.2313 29.567 78.9347 27.746 78.9347 25.4997C78.9347 23.2533 78.2313 21.4267 77.3691 21.4267C76.5068 21.4267 75.7694 23.276 75.7694 25.528C75.7694 27.7801 76.4671 29.5953 77.335 29.5953L77.3691 29.567ZM86.9161 31.195C87.0522 31.195 87.1997 30.4802 87.2451 29.584C87.2905 28.6877 87.2451 27.9559 87.0863 27.9503C86.9274 27.9446 86.8026 28.665 86.7572 29.5613C86.7119 30.4576 86.7573 31.2177 86.8934 31.2234L86.9161 31.195ZM38.3868 27.1731C40.0545 27.1731 41.399 26.1407 41.399 24.8643C41.399 23.588 40.0318 22.5613 38.3868 22.5613C36.7417 22.5613 35.3803 23.5937 35.3803 24.8643C35.3803 26.135 36.7247 27.1731 38.3868 27.1731ZM25.0958 7.88618C26.3268 7.05798 27.0529 5.98585 26.7182 5.49233C26.3835 4.99882 25.1128 5.26543 23.8819 6.09363C22.6509 6.92184 21.9248 7.98829 22.2595 8.48748C22.5942 8.98667 23.8649 8.71438 25.0958 7.88618ZM36.9686 3.78488C39.1242 3.59768 40.8203 2.87158 40.7579 2.16818C40.6955 1.46477 38.8973 1.03365 36.7417 1.23219C34.5861 1.43074 32.89 2.13981 32.9524 2.84889C33.0148 3.55797 34.8074 3.98342 36.963 3.79055L36.9686 3.78488ZM47.2871 10.7849C49.6526 10.7849 51.57 9.7468 51.57 8.47046C51.57 7.19412 49.6526 6.1617 47.2871 6.1617C44.9216 6.1617 43.0043 7.19979 43.0043 8.47046C43.0043 9.74113 44.916 10.7849 47.2815 10.7849H47.2871ZM59.9995 2.38941C58.2908 2.03237 56.5576 1.80482 54.8147 1.7087C54.6796 1.8022 54.5301 1.87308 54.3722 1.91858C54.1737 1.98665 54.3722 2.17385 54.5084 2.23625C55.3782 2.61442 56.7018 3.18169 58.4792 3.93804L59.9428 3.71113C60.7199 3.60335 60.9808 3.44452 60.7142 3.23463C60.4155 3.01022 60.1711 2.72131 59.9995 2.38941ZM63.9022 3.86429C65.4679 4.36915 66.8237 4.51664 66.9258 4.1933C67.0279 3.86996 65.848 3.20059 64.2823 2.69006C62.7167 2.17952 61.3609 2.03771 61.2588 2.36105C61.1567 2.68439 62.3366 3.35943 63.9022 3.86429ZM51.8876 1.38535C52.9314 1.51015 53.7936 1.4591 53.8163 1.2719C53.839 1.08471 53.0165 0.823765 51.9727 0.70464C50.929 0.585515 50.0667 0.625223 50.044 0.818092C50.0213 1.01096 50.8495 1.26056 51.8876 1.38535ZM69.8755 16.3838C73.4776 17.6204 76.989 16.9227 77.7094 14.8295C78.4298 12.7363 76.1041 10.0418 72.5019 8.81082C68.8998 7.57986 65.3885 8.24356 64.6624 10.3651C63.9363 12.4867 66.2734 15.1528 69.8755 16.3838ZM88.113 52.4106C87.7727 52.3369 87.6705 51.4746 87.8804 50.4819C88.0903 49.4892 88.5441 48.7404 88.8845 48.8142C89.2248 48.8879 89.327 49.7501 89.1171 50.7428C88.9072 51.7356 88.4534 52.4787 88.113 52.4106ZM88.2889 51.5881C88.4307 51.5881 88.6349 51.2023 88.754 50.6691C88.8731 50.1359 88.8448 49.6707 88.7086 49.6367C88.5725 49.6027 88.3626 50.0224 88.2435 50.5613C88.1244 51.1002 88.147 51.5597 88.2889 51.5881ZM84.6811 16.3214C84.1138 16.6334 83.314 16.2703 82.8885 15.5102C82.4631 14.7501 82.5822 13.8821 83.1495 13.5702C83.7167 13.2582 84.5166 13.6212 84.942 14.3813C85.3675 15.1415 85.2483 15.998 84.6811 16.31V16.3214ZM84.3294 15.686C84.5166 15.5839 84.4882 15.1642 84.2613 14.7557C84.0344 14.3473 83.694 14.1034 83.5012 14.1885C83.3083 14.2736 83.3423 14.7103 83.5692 15.1188C83.7961 15.5272 84.1365 15.7825 84.3294 15.6747V15.686ZM54.1624 54.9519V67.063H51.8025V54.9519C50.9905 54.7862 50.2559 54.3574 49.7123 53.7318C49.1688 53.1062 48.8467 52.3188 48.7961 51.4916C48.762 49.4608 50.6056 47.7817 52.9201 47.742C55.2345 47.7023 57.1348 49.3134 57.1688 51.3442C57.1438 52.194 56.8337 53.0107 56.2884 53.663C55.7431 54.3153 54.9943 54.7653 54.1624 54.9406V54.9519ZM53.0278 54.3166C54.8204 54.2826 56.2499 52.9835 56.2272 51.4065C56.1862 50.8094 55.9668 50.2383 55.5975 49.7672C55.3423 49.2339 54.2191 48.5929 52.9314 48.6326C51.1388 48.6667 49.7037 49.9657 49.732 51.5427C49.7604 53.1197 51.2353 54.3393 53.0278 54.3053V54.3166Z" fill="#19559C"/>
<path fill-rule="evenodd" clip-rule="evenodd" d="M8.26501 34.3095C11.4871 34.3095 14.919 35.3192 14.919 38.8476V46.222H12.6159V39.2333C12.6159 37.5315 10.6475 36.2098 8.16858 36.2438C5.68964 36.2779 3.32416 37.4521 3.25609 39.273C3.2107 40.4869 3.2107 42.8089 3.25609 46.239H0.845221V34.5704H3.15965V36.0112C4.41897 34.8767 6.12076 34.3095 8.26501 34.3095ZM89.0262 34.2584C92.2482 34.2584 95.7766 35.3078 95.7766 38.8532V46.2276H93.4792V39.2276C93.4792 37.5258 91.5051 36.2041 89.0262 36.2381C86.5472 36.2722 84.1874 37.4464 84.1193 39.2673C84.074 40.4813 84.074 42.8052 84.1193 46.239H81.7028V34.5647H84.0229V36.0112C85.2141 34.8427 86.8819 34.2584 89.0262 34.2584ZM34.8072 34.1279C38.2108 34.1279 39.8785 34.9675 41.552 36.2155L39.5098 37.35C38.1323 36.4811 36.5184 36.0627 34.8923 36.1531C32.7991 36.1531 30.5301 36.2722 30.5301 37.6676C30.5301 39.0631 33.5989 39.1198 36.9685 39.3694C40.338 39.619 41.7619 40.6912 41.62 43.0056C41.4782 45.32 38.693 46.7382 34.966 46.7382C31.2391 46.7382 29.1232 46.0915 26.7067 44.3216L28.7375 43.0226C30.5269 44.24 32.649 44.874 34.8129 44.8378C38.2165 44.8378 39.2319 43.6579 39.2489 43.0907C39.2659 42.5234 39.2489 41.1279 33.4571 41.1677C31.1314 41.1677 27.6824 40.4586 27.8583 37.6166C28.0341 34.7746 31.4036 34.1393 34.8072 34.1393V34.1279ZM52.2392 34.1279C55.6428 34.1279 57.3105 34.9675 58.9839 36.2155L56.9418 37.35C55.564 36.4818 53.9503 36.0635 52.3243 36.1531C50.2311 36.1531 47.962 36.2722 47.962 37.6676C47.962 39.0631 51.0309 39.1198 54.3948 39.3694C57.7587 39.619 59.1882 40.6912 59.052 43.0056C58.9159 45.32 56.1249 46.7382 52.398 46.7382C48.6711 46.7382 46.5552 46.0915 44.1387 44.3216L46.1695 43.0226C47.9602 44.236 50.0822 44.866 52.2449 44.8265C55.6484 44.8265 56.6638 43.6466 56.6809 43.0793C56.6979 42.5121 56.6809 41.1166 50.8891 41.1563C48.5577 41.1563 45.1087 40.4472 45.2902 37.6053C45.4717 34.7633 48.8299 34.1393 52.2392 34.1393V34.1279ZM15.0722 49.7957L14.9587 66.6831H12.6159L12.5819 65.1685C11.4076 66.5016 8.57701 66.9441 7.03405 66.9441C3.2731 66.9441 0 64.8622 0 60.8573C0 56.9432 3.2731 54.6798 7.08511 54.6798C10.2674 54.6798 11.4076 55.6612 12.6443 56.3476L12.7577 49.7844L15.0722 49.7957ZM2.4449 60.8687C2.4449 63.6596 4.71395 65.0551 7.28365 65.0551C9.85335 65.0551 12.7067 64.2042 12.7294 60.8176C12.7521 57.4311 9.50164 56.5518 7.36307 56.5632C5.22449 56.5745 2.4449 57.9416 2.4449 60.8687ZM69.9151 34.2584C75.3778 34.3492 76.1096 36.0169 76.0982 38.303C76.0869 40.589 76.0982 40.9521 76.0982 43.0907C76.0982 45.2293 77.2328 44.5656 78.2482 44.7244C78.2482 45.1782 78.2482 45.7228 78.2482 46.3638C76.5804 46.4848 75.4572 46.43 74.8786 46.1993C74.5674 46.0433 74.3044 45.8058 74.1176 45.5121C73.9308 45.2184 73.8272 44.8795 73.8179 44.5315C72.4054 46.2333 70.6242 46.7098 68.3324 46.7098C64.736 46.7098 62.2854 45.3314 62.2854 42.6936C62.2854 39.8573 65.2408 38.995 68.4289 38.995C69.5899 38.995 71.3729 39.0102 73.7781 39.0404C73.7781 36.6976 73.6023 36.0566 69.9832 35.9318C68.0715 35.8638 65.6152 36.2779 65.6209 37.3783L63.1476 37.3443C63.522 34.1166 68.0318 34.2244 69.8867 34.2584H69.9151ZM64.7473 42.6709C64.7473 44.2933 66.9653 45.1555 68.6785 44.94C72.2598 44.5088 73.9616 43.1512 73.7838 40.867C71.3748 40.867 69.726 40.8443 68.8373 40.7989C66.4831 40.7252 64.7417 41.1053 64.7417 42.6596L64.7473 42.6709ZM80.9086 54.6798C86.3714 54.7763 87.1031 56.444 87.0918 58.7244C87.0804 61.0048 87.0918 61.3792 87.0918 63.5178C87.0918 65.6564 88.2263 64.9927 89.2417 65.1515C89.2417 65.6053 89.2417 66.1499 89.2701 66.7852C87.6023 66.9043 86.4791 66.8533 85.9062 66.6207C85.3333 66.3881 84.9759 65.8379 84.8398 64.9586C83.4273 66.6604 81.6461 67.1369 79.36 67.1369C75.7579 67.1369 73.3073 65.7585 73.3073 63.115C73.3073 60.2787 76.2628 59.4222 79.4564 59.4222C80.591 59.4222 82.3949 59.4222 84.8 59.4675C84.8 57.1247 84.6299 56.4837 81.0107 56.3589C79.0991 56.2909 76.6428 56.6993 76.6485 57.8055L74.1696 57.7658C74.5439 54.5267 79.0537 54.6288 80.9086 54.6798ZM75.7692 63.081C75.7692 64.7034 77.9929 65.5656 79.706 65.35C83.2798 64.9189 84.9816 63.5594 84.8114 61.2714C82.4005 61.2714 80.7498 61.2374 79.8592 61.209C77.5051 61.1296 75.7692 61.5154 75.7692 63.064V63.081ZM44.74 55.0089V66.0591C44.74 70.8128 41.3364 71.5672 37.6095 71.7318C35.3404 71.8395 30.0422 71.4311 30.3032 67.4886L32.6743 67.4149C32.6743 69.1621 34.9774 69.786 37.0195 69.786C39.0617 69.786 42.244 69.3379 42.4879 67.2504L42.3745 64.8962C40.8095 66.1853 38.8241 66.8518 36.7983 66.7682C33.026 66.7682 29.7472 64.7658 29.7472 60.829C29.7472 56.8922 33.0317 54.6458 36.8494 54.7082C40.026 54.7593 41.4669 55.6385 42.4369 56.4384V54.9975L44.74 55.0089ZM37.0592 64.8906C39.5949 64.8906 42.4369 63.6086 42.4482 60.7722C42.4596 57.9359 39.2716 56.5234 37.133 56.5405C34.9944 56.5575 32.1978 57.8906 32.1978 60.8176C32.2035 63.5859 34.5179 64.8906 37.0592 64.8906ZM68.3948 54.8897V56.5632H64.9912V63.2342C64.9912 65.3217 66.988 64.7431 68.27 64.7431C68.27 65.3898 68.27 66.1726 68.27 66.7512C64.9629 66.7966 62.4272 67.4319 62.6485 63.2115V56.5632H60.5609V54.8897H62.6485V50.987H64.9856V54.8897H68.3948ZM93.5926 49.8581H96.2304V66.7455H93.5926V49.8581Z" fill="#090403"/>
<path d="M22.3391 32.2726C21.8323 32.3134 21.3301 32.152 20.9421 31.8235C20.554 31.495 20.3119 31.0263 20.2686 30.5198C20.3279 30.0262 20.5639 29.5708 20.9328 29.2376C21.3017 28.9044 21.7787 28.7159 22.2758 28.7069C22.7728 28.6979 23.2563 28.869 23.637 29.1887C24.0178 29.5083 24.27 29.9549 24.3472 30.446C24.3222 30.9542 24.0968 31.4318 23.7204 31.7741C23.3441 32.1165 22.8473 32.2957 22.3391 32.2726ZM22.3391 53.0571C22.0238 53.0211 21.7256 52.8949 21.4802 52.6938C21.2348 52.4927 21.0525 52.2251 20.9552 51.923C20.858 51.621 20.8498 51.2973 20.9317 50.9908C21.0137 50.6842 21.1822 50.4078 21.4172 50.1946C21.6522 49.9813 21.9437 49.8404 22.2567 49.7885C22.5698 49.7366 22.8911 49.7761 23.1823 49.9022C23.4735 50.0282 23.7222 50.2356 23.8986 50.4993C24.075 50.7631 24.1717 51.0721 24.177 51.3893C24.152 51.8534 23.945 52.2888 23.6009 52.601C23.2567 52.9133 22.8033 53.0772 22.3391 53.0571ZM53.0109 53.0911C52.6957 53.0551 52.3975 52.929 52.1521 52.7278C51.9066 52.5267 51.7244 52.2591 51.6271 51.9571C51.5298 51.655 51.5217 51.3314 51.6036 51.0248C51.6855 50.7183 51.8541 50.4418 52.0891 50.2286C52.3241 50.0154 52.6155 49.8744 52.9286 49.8225C53.2416 49.7707 53.563 49.8101 53.8542 49.9362C54.1454 50.0623 54.3941 50.2696 54.5705 50.5333C54.7469 50.7971 54.8435 51.1061 54.8489 51.4234C54.8239 51.8874 54.6169 52.3228 54.2727 52.6351C53.9286 52.9473 53.4752 53.1112 53.0109 53.0911Z" fill="#090403"/>
</svg>
